<?xml version="1.0" encoding="UTF-8"?>
<svg id="Camada_1" xmlns="http://www.w3.org/2000/svg" version="1.1" xmlns:xlink="http://www.w3.org/1999/xlink" viewBox="0 0 715.69 802.88">
  <!-- Generator: Adobe Illustrator 29.0.0, SVG Export Plug-In . SVG Version: 2.1.0 Build 186)  -->
  <defs>
    <style>
      .st0 {
        fill: #111;
      }

      .st1 {
        fill: none;
        stroke: #00ae9d;
        stroke-linecap: round;
        stroke-linejoin: round;
        stroke-width: 5px;
      }

      .st2 {
        fill: #00ae9d;
      }

      .st3 {
        fill: #00af9e;
      }

      .st4 {
        fill: #003641;
      }

      .st5 {
        fill: #008777;
      }

      .st6 {
        fill: url(#Gradiente_sem_nome_16);
      }

      .st7 {
        fill: #f4f4f4;
      }

      .st8 {
        fill: #009684;
      }
    </style>
    <linearGradient id="Gradiente_sem_nome_16" data-name="Gradiente sem nome 16" x1="-508.52" y1="673.82" x2="-508.52" y2="214.9" gradientUnits="userSpaceOnUse">
      <stop offset="0" stop-color="#00af9e"/>
      <stop offset=".08" stop-color="#00a898"/>
      <stop offset=".19" stop-color="#009887"/>
      <stop offset=".32" stop-color="#007c6d"/>
      <stop offset=".45" stop-color="#005548"/>
      <stop offset=".48" stop-color="#004c3f"/>
      <stop offset=".62" stop-color="#00695a"/>
      <stop offset=".87" stop-color="#009b8b"/>
      <stop offset="1" stop-color="#00af9e"/>
    </linearGradient>
  </defs>
  <rect class="st0" x="-3788.61" y="895.71" width="1523.73" height="665.75"/>
  <path class="st3" d="M999.41,403.56"/>
  <path class="st3" d="M1339.91,576.35"/>
  <path class="st3" d="M999.41,403.56"/>
  <path class="st5" d="M1339.91,137.45v-62.94l-319.23,136.31c-8.52,3.64-9.01,15.54-.81,19.86l299.11,157.61c8.39,4.42,7.89,16.59-.83,20.32l-211.93,90.49c-64.78,27.66-106.81,91.31-106.81,161.75v67.52l318.94-142.92c8.65-3.88,8.93-16.05.48-20.32l-298.77-151.12c-8.27-4.18-7.98-16.09.48-19.87l215.19-96.08c63.37-28.29,104.18-91.2,104.18-160.6Z"/>
  <g>
    <path class="st3" d="M-679.05,403.56"/>
    <path class="st3" d="M-338.55,576.35"/>
    <path class="st3" d="M-679.05,403.56"/>
    <path class="st4" d="M-338.55,137.45v-62.94l-319.23,136.31c-8.52,3.64-9.01,15.54-.81,19.86l299.11,157.61c8.39,4.42,7.89,16.59-.83,20.32l-211.93,90.49c-64.78,27.66-106.81,91.31-106.81,161.75v67.52l318.94-142.92c8.65-3.88,8.93-16.05.48-20.32l-298.77-151.12c-8.27-4.18-7.98-16.09.48-19.87l215.19-96.08c63.37-28.29,104.18-91.2,104.18-160.6Z"/>
    <g>
      <path class="st3" d="M-508.8,110.75c28.67,0,50.17,19.42,50.17,49.29s-21.5,49.79-50.17,49.79-50.17-20.41-50.17-49.79,21.5-49.29,50.17-49.29Z"/>
      <path class="st6" d="M-460.09,214.9h0l.38,415.17-97.42,43.75-.2-352.68c-.1-58.64,43.47-106.24,97.24-106.24Z"/>
    </g>
    <path class="st3" d="M-664.26,403.56v-181.58s.41,5.85,5.83,8.71c5.42,2.86,299.11,157.61,299.11,157.61,0,0,5.99,3.23,5.99,9.92v176.43s.06-6.39-6.14-9.53c-6.21-3.14-300.03-151.87-300.03-151.87,0,0-4.75-2.34-4.75-9.69Z"/>
  </g>
  <g>
    <g>
      <path class="st1" d="M189.3,403.54"/>
      <path class="st1" d="M526.39,574.6"/>
      <path class="st1" d="M189.3,403.54"/>
      <path class="st2" d="M506.99,560.57l-100.3-50.73v7.32l97.35,49.24c2.78,1.41,4.4,4.11,4.33,7.22-.08,3.11-1.82,5.73-4.66,7.01l-311.15,139.43v-61.8c0-68.54,40.73-130.21,103.76-157.13l12.96-5.53v-7.1s-15.52,6.62-15.52,6.62c-65.45,27.95-107.73,91.98-107.73,163.14v66.84c0,1.11.56,2.14,1.49,2.74.54.35,1.15.53,1.77.53.46,0,.91-.1,1.34-.29l315.75-141.49c5.12-2.3,8.38-7.21,8.51-12.82.14-5.61-2.89-10.66-7.9-13.2ZM424.58,302.06c63.83-28.49,105.07-92.07,105.07-161.97v-62.31c0-1.1-.55-2.12-1.46-2.73-.92-.6-2.08-.71-3.08-.27l-127.19,54.3c1.34,1.74,2.57,3.59,3.66,5.54l121.54-51.9v57.37c0,67.33-39.72,128.56-101.2,156.01l-15.43,6.89-30.29,13.52-61.09-32.19-104.04-54.82c-2.67-1.41-4.19-4.05-4.07-7.06.12-3.02,1.85-5.53,4.63-6.71l97.64-41.69c-.55-2.12-.98-4.31-1.27-6.56l-98.93,42.24c-5.08,2.17-8.37,6.94-8.59,12.45-.23,5.51,2.66,10.53,7.55,13.11l105.15,55.41,55.44,29.21-59.45,26.54-100.29,44.78c-5.04,2.25-8.25,7.07-8.39,12.59-.13,5.51,2.84,10.49,7.77,12.98l101,51.09v-7.33s-98.06-49.59-98.06-49.59c-2.69-1.36-4.25-3.98-4.18-6.99.07-3.02,1.76-5.56,4.52-6.79l97.63-43.59,66.8-29.82,30.55,16.1,97.63,51.44c2.75,1.46,4.32,4.18,4.2,7.3-.13,3.11-1.92,5.7-4.78,6.93l-96.94,41.39v7.1l99.5-42.49c5.16-2.2,8.51-7.06,8.74-12.67.23-5.61-2.71-10.72-7.68-13.33l-100.68-53.06-22.96-12.1,22.94-10.24,18.09-8.08Z"/>
      <path class="st4" d="M357.69,213.33c-31.1,0-53.67-22.41-53.67-53.29s22.07-52.79,53.67-52.79,53.67,21.71,53.67,52.79-22.57,53.29-53.67,53.29ZM357.69,114.25c-27.48,0-46.67,18.83-46.67,45.79s19.63,46.29,46.67,46.29,46.67-19.47,46.67-46.29-19.19-45.79-46.67-45.79Z"/>
      <g>
        <path class="st4" d="M346.89,479.53l-.06.03,59.86,30.28v-.03c-19.23-9.74-39.66-20.08-59.8-30.28ZM309.25,460.55l29.97,15.16.06-.03c-10.2-5.16-20.28-10.26-30.03-15.2v.07Z"/>
        <path class="st4" d="M211.07,229.5l104.04,54.82c-.71,2.09-1.35,4.21-1.93,6.37l-105.15-55.41c-.35-.19-.68-.38-.99-.57v168.83c0,5,2.83,6.63,2.95,6.7,0,0,44.61,22.58,99.26,50.24v.07l.03.02v7.25c-56.01-28.36-102.27-51.77-102.27-51.77-2.4-1.18-6.5-5.16-6.5-12.51v-179.77c0-1.76,1.39-3.21,3.15-3.27,1.78-.04,3.25,1.28,3.37,3.04.01.13.41,4.05,4.04,5.96Z"/>
        <path class="st4" d="M514.86,398.25v174.71c-.02,1.79-1.47,3.23-3.26,3.23h-.02c-1.8-.01-3.25-1.47-3.25-3.27v-.04c0-.24-.16-4.39-4.29-6.48-2.31-1.17-45.1-22.83-97.52-49.36v-7.29l.17.09v-.03c53.67,27.16,97.94,49.57,100.3,50.76.48.24.92.5,1.34.77v-163.09c0-4.53-4.06-6.87-4.23-6.96l-97.58-51.42v-7.38s100.67,53.05,100.67,53.05c.34.18,7.67,4.23,7.67,12.71Z"/>
      </g>
      <path class="st8" d="M406.69,517.16l-.17-.09v-7.32l.17.09v-.03l-.06-55.78-58.73,25.07-1.07-.51.06-.03c-2.08-1.16-4.15-2.32-6.21-3.47l65.95-28.15-.11-107.06v-7.38s-.01-.01-.01-.01l-.02-22.34v-7.15l-.09-88.09c-41.91,0-77.61,28.91-91.29,69.42-.71,2.09-1.35,4.21-1.93,6.37-2.64,9.64-4.05,19.87-4.03,30.45l.02,25.3v7.15l.08,106.89v.07l.03.02v7.32h-.02s.01,20.61.01,20.61l19.11-8.16c2.52,1.3,5.05,2.58,7.59,3.86l-26.68,11.4.08,179.01,97.42-43.63-.09-113.81Z"/>
      <path class="st4" d="M406.51,332.49h0s-91.4-48.17-91.4-48.17c-.71,2.09-1.35,4.21-1.93,6.37l93.34,49.18v-7.38Z"/>
    </g>
    <polygon class="st8" points="309.28 495.6 406.63 454.03 406.63 446.93 309.27 488.5 309.28 495.6"/>
    <polygon class="st4" points="406.69 517.16 309.26 467.88 309.25 460.55 406.69 509.84 406.69 517.16"/>
  </g>
  <g>
    <path class="st4" d="M1169.66,110.75c28.67,0,50.17,19.42,50.17,49.29s-21.5,49.79-50.17,49.79-50.17-20.41-50.17-49.79,21.5-49.29,50.17-49.29Z"/>
    <path class="st4" d="M1218.37,214.9h0l.38,415.17-97.42,43.75-.2-352.68c-.1-58.64,43.47-106.24,97.24-106.24Z"/>
  </g>
  <path class="st3" d="M1014.04,403.56v-181.58s.41,5.85,5.83,8.71c5.42,2.86,299.11,157.61,299.11,157.61,0,0,5.99,3.23,5.99,9.92v176.43s.06-6.39-6.14-9.53c-6.21-3.14-300.03-151.87-300.03-151.87,0,0-4.75-2.34-4.75-9.69Z"/>
  <g>
    <g>
      <path class="st3" d="M-3658.84-1002.79"/>
      <path class="st3" d="M-3400.71-871.8"/>
      <path class="st3" d="M-3658.84-1002.79"/>
      <path class="st4" d="M-3400.71-1204.52v-47.71l-242,103.33c-6.46,2.76-6.83,11.78-.61,15.06l226.75,119.48c6.36,3.35,5.98,12.58-.63,15.4l-160.66,68.6c-49.11,20.97-80.97,69.22-80.97,122.62v51.18l241.78-108.35c6.56-2.94,6.77-12.16.36-15.41l-226.5-114.56c-6.27-3.17-6.05-12.2.36-15.07l163.14-72.83c48.04-21.45,78.98-69.14,78.98-121.75Z"/>
      <path class="st3" d="M-3647.75-1002.79v-137.66s.31,4.43,4.42,6.6c4.11,2.17,226.75,119.48,226.75,119.48,0,0,4.54,2.45,4.54,7.52v133.75s.05-4.85-4.66-7.23c-4.7-2.38-227.45-115.13-227.45-115.13,0,0-3.6-1.78-3.6-7.35Z"/>
    </g>
    <g>
      <g>
        <path class="st4" d="M-3331.7-839.74v-3.83c2.49,1.47,5.14,2.16,7.99,2.16s5.06-1.55,5.06-4-2.57-3.51-5.38-4.65c-3.47-1.43-7.38-3.14-7.38-7.71,0-3.71,2.81-7.22,8.52-7.22,4.48,0,6.89,1.35,6.89,3.51,0,.57-.12,1.18-.41,1.88-1.96-1.02-4.24-1.79-6.44-1.79-3.34,0-4.89,1.51-4.89,3.55,0,1.71,1.26,2.73,5.1,4.32,3.55,1.47,7.66,3.22,7.66,7.91s-3.71,7.79-8.85,7.79c-2.73,0-5.18-.53-7.87-1.92Z"/>
        <path class="st4" d="M-3309.68-864.65h3.67v26.5h-3.67v-26.5Z"/>
        <path class="st4" d="M-3300.71-839.74v-3.83c2.49,1.47,5.14,2.16,7.99,2.16s5.06-1.55,5.06-4-2.57-3.51-5.38-4.65c-3.47-1.43-7.38-3.14-7.38-7.71,0-3.71,2.81-7.22,8.52-7.22,4.48,0,6.89,1.35,6.89,3.51,0,.57-.12,1.18-.41,1.88-1.96-1.02-4.24-1.79-6.44-1.79-3.34,0-4.89,1.51-4.89,3.55,0,1.71,1.26,2.73,5.1,4.32,3.55,1.47,7.66,3.22,7.66,7.91s-3.71,7.79-8.85,7.79c-2.73,0-5.18-.53-7.87-1.92Z"/>
        <path class="st4" d="M-3272.9-861.19h-8.15v-3.47h19.98v3.47h-8.15v23.04h-3.67v-23.04Z"/>
        <path class="st4" d="M-3255.78-864.65h17.12v3.47h-13.45v8.03h12.23v3.47h-12.23v8.07h13.45v3.47h-17.12v-26.5Z"/>
        <path class="st4" d="M-3229.68-864.65h3.26l7.99,19,7.91-19h3.26l4.08,26.5h-3.71l-2.85-19.65-7.01,16.96h-3.34l-7.09-16.96-2.85,19.65h-3.71l4.08-26.5Z"/>
        <path class="st4" d="M-3189.52-864.65h3.26l9.99,26.5h-3.95l-2.12-5.83h-11.21l-2.12,5.83h-3.83l9.99-26.5ZM-3183.61-847.45l-4.32-12.03-4.36,12.03h8.68Z"/>
        <path class="st4" d="M-3162.82-864.65h7.62c7.5,0,13.17,5.38,13.17,13.29,0,7.5-5.67,13.21-13.17,13.21h-7.62v-26.5ZM-3155.19-841.62c5.34,0,9.42-4.12,9.42-9.74,0-6.03-4.08-9.83-9.42-9.83h-3.95v19.57h3.95Z"/>
        <path class="st4" d="M-3136.72-864.65h17.12v3.47h-13.45v8.03h12.23v3.47h-12.23v8.07h13.45v3.47h-17.12v-26.5Z"/>
        <path class="st4" d="M-3104.92-864.65h3.67v26.5h-3.67v-26.5Z"/>
        <path class="st4" d="M-3094.73-864.65h2.85l14.27,19.73v-19.73h3.67v26.5h-2.85l-14.27-19.61v19.61h-3.67v-26.5Z"/>
        <path class="st4" d="M-3067.41-864.65h16.31v3.47h-12.64v8.85h11.42v3.47h-11.42v10.72h-3.67v-26.5Z"/>
        <path class="st4" d="M-3047.14-851.36c0-8.73,5.59-13.62,11.99-13.62s12.07,4.85,12.07,13.58-5.67,13.58-12.07,13.58-11.99-4.89-11.99-13.54ZM-3035.16-841.58c4.24,0,8.2-3.02,8.2-9.79s-3.83-9.87-8.24-9.87-8.07,3.02-8.07,9.83,3.87,9.83,8.11,9.83Z"/>
        <path class="st4" d="M-3017.79-864.65h9.54c5.26,0,8.77,3.83,8.77,8.28,0,4.89-3.38,8.19-8.73,8.36,1.39.98,2.65,2.24,4.16,3.87l5.42,5.99h-4.93l-8.77-9.87h-1.79v9.87h-3.67v-26.5ZM-3008.7-851.48c3.14,0,5.46-1.34,5.46-4.89,0-2.61-2.32-4.81-5.46-4.81h-5.42v9.7h5.42Z"/>
        <path class="st4" d="M-2990.75-864.65h3.26l7.99,19,7.91-19h3.26l4.08,26.5h-3.71l-2.85-19.65-7.01,16.96h-3.34l-7.09-16.96-2.85,19.65h-3.71l4.08-26.5Z"/>
        <path class="st4" d="M-2950.59-864.65h3.26l9.99,26.5h-3.95l-2.12-5.83h-11.21l-2.12,5.83h-3.83l9.99-26.5ZM-2944.68-847.45l-4.32-12.03-4.36,12.03h8.68Z"/>
        <path class="st4" d="M-2926.46-830.16v-2.69c.73.37,1.59.49,2.49.49,1.96,0,2.69-.61,2.69-1.34,0-.65-.82-1.14-2.49-1.14-.49,0-.82.04-1.18.12l.49-3.26c-6.73-1.06-10.64-6.69-10.64-13.41,0-7.71,5.1-13.58,12.88-13.58,4.04,0,6.85,1.26,6.85,3.55,0,.53-.16,1.1-.65,1.92-1.71-1.22-3.79-1.88-6.12-1.88-6.03,0-9.21,4.48-9.21,9.99s3.18,9.99,9.74,9.99c2.36,0,4.53-.57,6.28-1.59v3.59c-1.39.82-3.75,1.51-6.4,1.59l-.16.94c2.2.29,3.75,1.55,3.75,3.42,0,2-1.71,3.87-5.34,3.87-.77,0-1.92-.08-2.98-.57Z"/>
        <path class="st4" d="M-2901.54-864.65h3.26l9.99,26.5h-3.95l-2.12-5.83h-11.21l-2.12,5.83h-3.83l9.99-26.5ZM-2902.44-871.46c1.1,0,1.83.24,2.69.61.77.33,1.26.49,1.88.49.82,0,1.3-.45,1.3-1.63h2.94c0,2.98-1.3,4.81-3.79,4.81-1.06,0-1.83-.29-2.57-.57-.61-.24-1.26-.49-2-.49-.94,0-1.26.45-1.26,1.35h-3.06c0-3.02,1.67-4.57,3.87-4.57ZM-2895.63-847.45l-4.32-12.03-4.36,12.03h8.68Z"/>
        <path class="st4" d="M-2886.05-851.36c0-8.73,5.59-13.62,11.99-13.62s12.07,4.85,12.07,13.58-5.67,13.58-12.07,13.58-11.99-4.89-11.99-13.54ZM-2874.06-841.58c4.24,0,8.19-3.02,8.19-9.79s-3.83-9.87-8.24-9.87-8.07,3.02-8.07,9.83,3.87,9.83,8.11,9.83Z"/>
        <path class="st4" d="M-2857.67-841.94h3.59c0,3.02-1.63,7.09-3.71,9.5l-2.53-1.51c1.75-2.61,2.65-5.75,2.65-7.99Z"/>
        <path class="st4" d="M-2839-864.65h2.85l14.27,19.73v-19.73h3.67v26.5h-2.85l-14.27-19.61v19.61h-3.67v-26.5Z"/>
        <path class="st4" d="M-2811.68-864.65h17.12v3.47h-13.45v8.03h12.23v3.47h-12.23v8.07h13.45v3.47h-17.12v-26.5Z"/>
        <path class="st4" d="M-2790.07-851.36c0-7.42,4.81-13.62,13.33-13.62,4.89,0,7.46,1.47,7.46,3.59,0,.53-.16,1.1-.53,1.83-2.08-1.3-4.61-1.83-6.93-1.83-6.44,0-9.58,4.77-9.58,9.91,0,5.91,3.95,10.07,9.87,10.07,1.59,0,2.85-.08,4.32-.53v-6.65h-4.93v-3.47h8.6v12.07c-2.89,1.59-5.46,2.16-8.73,2.16-7.26,0-12.88-5.42-12.88-13.54Z"/>
        <path class="st4" d="M-2763.57-851.36c0-8.73,5.59-13.62,11.99-13.62s12.07,4.85,12.07,13.58-5.67,13.58-12.07,13.58-11.99-4.89-11.99-13.54ZM-2751.58-841.58c4.24,0,8.19-3.02,8.19-9.79s-3.83-9.87-8.24-9.87-8.07,3.02-8.07,9.83,3.87,9.83,8.11,9.83ZM-2749.99-872.4h4.61l-4.77,5.3h-3.47l3.63-5.3Z"/>
        <path class="st4" d="M-2735.44-851.4c0-7.71,5.1-13.58,12.88-13.58,4.04,0,6.85,1.26,6.85,3.55,0,.53-.16,1.1-.65,1.92-1.71-1.22-3.79-1.88-6.12-1.88-6.03,0-9.21,4.48-9.21,9.99s3.18,9.99,9.75,9.99c2.36,0,4.53-.57,6.28-1.59v3.59c-1.47.86-3.95,1.59-6.77,1.59-8.15,0-13.01-6.11-13.01-13.58Z"/>
        <path class="st4" d="M-2709.83-864.65h3.67v26.5h-3.67v-26.5Z"/>
        <path class="st4" d="M-2700.86-851.36c0-8.73,5.59-13.62,11.99-13.62s12.07,4.85,12.07,13.58-5.67,13.58-12.07,13.58-11.99-4.89-11.99-13.54ZM-2688.87-841.58c4.24,0,8.2-3.02,8.2-9.79s-3.83-9.87-8.24-9.87-8.07,3.02-8.07,9.83,3.87,9.83,8.11,9.83Z"/>
        <path class="st4" d="M-2672.73-839.74v-3.83c2.49,1.47,5.14,2.16,7.99,2.16s5.06-1.55,5.06-4-2.57-3.51-5.38-4.65c-3.47-1.43-7.38-3.14-7.38-7.71,0-3.71,2.81-7.22,8.52-7.22,4.48,0,6.89,1.35,6.89,3.51,0,.57-.12,1.18-.41,1.88-1.96-1.02-4.24-1.79-6.44-1.79-3.34,0-4.89,1.51-4.89,3.55,0,1.71,1.26,2.73,5.1,4.32,3.55,1.47,7.67,3.22,7.67,7.91s-3.71,7.79-8.85,7.79c-2.73,0-5.18-.53-7.87-1.92Z"/>
        <path class="st4" d="M-2641.74-864.65h17.12v3.47h-13.45v8.03h12.23v3.47h-12.23v8.07h13.45v3.47h-17.12v-26.5Z"/>
        <path class="st4" d="M-2611.16-851.36c0-7.42,4.81-13.62,13.33-13.62,4.89,0,7.46,1.47,7.46,3.59,0,.53-.16,1.1-.53,1.83-2.08-1.3-4.61-1.83-6.93-1.83-6.44,0-9.58,4.77-9.58,9.91,0,5.91,3.95,10.07,9.87,10.07,1.59,0,2.85-.08,4.32-.53v-6.65h-4.93v-3.47h8.6v12.07c-2.89,1.59-5.46,2.16-8.73,2.16-7.26,0-12.88-5.42-12.88-13.54Z"/>
        <path class="st4" d="M-2583.44-864.65h17.12v3.47h-13.45v8.03h12.23v3.47h-12.23v8.07h13.45v3.47h-17.12v-26.5Z"/>
        <path class="st4" d="M-2561.42-839.74v-3.83c2.49,1.47,5.14,2.16,7.99,2.16s5.06-1.55,5.06-4-2.57-3.51-5.38-4.65c-3.47-1.43-7.38-3.14-7.38-7.71,0-3.71,2.81-7.22,8.52-7.22,4.48,0,6.89,1.35,6.89,3.51,0,.57-.12,1.18-.41,1.88-1.96-1.02-4.24-1.79-6.44-1.79-3.34,0-4.89,1.51-4.89,3.55,0,1.71,1.26,2.73,5.1,4.32,3.55,1.47,7.67,3.22,7.67,7.91s-3.71,7.79-8.85,7.79c-2.73,0-5.18-.53-7.87-1.92Z"/>
        <path class="st4" d="M-2533.61-861.19h-8.15v-3.47h19.98v3.47h-8.15v23.04h-3.67v-23.04Z"/>
        <path class="st4" d="M-2512.37-864.65h3.26l9.99,26.5h-3.95l-2.12-5.83h-11.21l-2.12,5.83h-3.83l9.99-26.5ZM-2513.27-871.46c1.1,0,1.83.24,2.69.61.78.33,1.26.49,1.88.49.82,0,1.3-.45,1.3-1.63h2.94c0,2.98-1.3,4.81-3.79,4.81-1.06,0-1.84-.29-2.57-.57-.61-.24-1.26-.49-2-.49-.94,0-1.26.45-1.26,1.35h-3.06c0-3.02,1.67-4.57,3.87-4.57ZM-2506.46-847.45l-4.32-12.03-4.36,12.03h8.68Z"/>
        <path class="st4" d="M-2496.87-851.36c0-8.73,5.59-13.62,11.99-13.62s12.07,4.85,12.07,13.58-5.67,13.58-12.07,13.58-11.99-4.89-11.99-13.54ZM-2484.89-841.58c4.24,0,8.19-3.02,8.19-9.79s-3.83-9.87-8.24-9.87-8.07,3.02-8.07,9.83,3.87,9.83,8.11,9.83Z"/>
      </g>
      <g>
        <g>
          <path class="st2" d="M-3107.84-974.24c0,32.76-23.1,65.52-74.34,65.52h-149.52v-50.82h149.52c17.64,0,17.64-7.14,17.64-10.92,0-14.28-47.88-36.12-67.2-45.36-48.72-23.94-99.96-47.04-99.96-92.82,0-32.76,23.1-65.52,74.34-65.52h136.5v50.82h-136.5c-17.64,0-17.64,7.14-17.64,10.92,0,14.28,47.88,35.7,67.62,45.36,48.72,23.52,99.54,46.62,99.54,92.82Z"/>
          <path class="st2" d="M-3084.75-908.72v-145.12c0-31.31,25.39-56.7,56.7-56.7h0v201.82h-56.7Z"/>
          <path class="st2" d="M-2998.23-1068.32c0-61.32,53.76-110.88,120.12-110.88s120.54,49.56,120.54,110.88v159.6h-56.7v-159.6c0-33.18-25.2-60.06-63.84-60.06s-63.42,26.88-63.42,60.06v159.6h-56.7v-159.6Z"/>
          <path class="st2" d="M-2472.82-908.72h-145.32c-63,0-120.54-59.64-120.54-132.72s57.54-132.72,120.54-132.72h145.32v50.82h-145.32c-31.92,0-57.96,36.96-57.96,81.9s26.04,81.9,57.96,81.9h88.62v-88.4h56.7v139.22Z"/>
        </g>
        <path class="st4" d="M-3056.38-1174.16c16.21,0,28.37,10.98,28.37,27.88s-12.16,28.16-28.37,28.16-28.37-11.54-28.37-28.16,12.16-27.88,28.37-27.88Z"/>
      </g>
    </g>
    <path class="st2" d="M-2998.23-1174.16h16.28c22.31,0,40.42,18.11,40.42,40.42v191.44h-56.7v-231.87h0Z"/>
  </g>
  <g>
    <g>
      <path class="st1" d="M-3658.84-246.34"/>
      <path class="st1" d="M-3400.71-115.34"/>
      <path class="st1" d="M-3658.84-246.34"/>
      <path class="st2" d="M-3658.84,2.4c-.48,0-.95-.14-1.36-.4-.71-.46-1.14-1.25-1.14-2.1v-51.18c0-54.49,32.38-103.52,82.49-124.92l28.81-12.3-94.27-47.69c-3.77-1.91-6.05-5.72-5.95-9.94.1-4.22,2.56-7.92,6.42-9.64l122.32-54.61-122.97-64.8c-3.74-1.97-5.95-5.81-5.78-10.04.17-4.22,2.69-7.87,6.58-9.53l242-103.33c.77-.33,1.66-.25,2.36.21.7.46,1.12,1.25,1.12,2.09v47.71c0,53.53-31.58,102.21-80.46,124.03l-31.42,14.03,94.68,49.89c3.8,2,6.06,5.92,5.88,10.21-.18,4.3-2.74,8.01-6.69,9.7l-121.98,52.09,122.64,62.03c3.83,1.94,6.15,5.81,6.05,10.11-.1,4.3-2.6,8.05-6.52,9.81L-3657.82,2.18c-.33.15-.68.22-1.02.22ZM-3544.22-185.55l-32.67,13.95c-48.27,20.61-79.46,67.84-79.46,120.32V-3.96l238.26-106.77c2.18-.98,3.51-2.98,3.57-5.37.06-2.39-1.18-4.45-3.31-5.53l-126.39-63.93ZM-3515.9-307.42l-125.91,56.21c-2.11.94-3.4,2.88-3.46,5.2s1.14,4.31,3.21,5.36l98.02,49.58,125.85-53.74c2.2-.94,3.56-2.92,3.66-5.31s-1.11-4.47-3.22-5.59l-98.15-51.72ZM-3403.21-492l-238.52,101.85c-2.13.91-3.45,2.83-3.54,5.14-.09,2.31,1.07,4.33,3.12,5.41l126.45,66.63,35.01-15.63c47.08-21.02,77.5-67.91,77.5-119.47v-43.93Z"/>
      <path class="st4" d="M-3412.04-114.13h-.01c-1.38,0-2.49-1.12-2.49-2.5v-.03c0-.18-.12-3.37-3.28-4.96-4.7-2.38-227.45-115.13-227.45-115.13-1.83-.9-4.98-3.95-4.98-9.58v-137.66c0-1.35,1.07-2.45,2.41-2.5,1.36-.03,2.49.98,2.58,2.33,0,.1.31,3.1,3.09,4.56l226.75,119.48c.26.14,5.88,3.24,5.88,9.74V-116.61c-.01,1.37-1.13,2.48-2.5,2.48ZM-3642.99-241.2s222.72,112.74,227.42,115.12c.36.18.71.38,1.03.58v-124.88c0-3.47-3.11-5.26-3.24-5.33l-226.71-119.46c-.26-.14-.51-.28-.75-.44v129.28c0,3.83,2.17,5.08,2.26,5.13ZM-3642.99-241.2h0,0Z"/>
    </g>
    <g>
      <g>
        <path class="st4" d="M-3331.7-95.78v-3.83c2.49,1.47,5.14,2.16,7.99,2.16s5.06-1.55,5.06-4-2.57-3.51-5.38-4.65c-3.47-1.43-7.38-3.14-7.38-7.71,0-3.71,2.81-7.22,8.52-7.22,4.48,0,6.89,1.35,6.89,3.51,0,.57-.12,1.18-.41,1.88-1.96-1.02-4.24-1.79-6.44-1.79-3.34,0-4.89,1.51-4.89,3.55,0,1.71,1.26,2.73,5.1,4.32,3.55,1.47,7.66,3.22,7.66,7.91s-3.71,7.79-8.85,7.79c-2.73,0-5.18-.53-7.87-1.92Z"/>
        <path class="st4" d="M-3309.68-120.69h3.67v26.5h-3.67v-26.5Z"/>
        <path class="st4" d="M-3300.71-95.78v-3.83c2.49,1.47,5.14,2.16,7.99,2.16s5.06-1.55,5.06-4-2.57-3.51-5.38-4.65c-3.47-1.43-7.38-3.14-7.38-7.71,0-3.71,2.81-7.22,8.52-7.22,4.48,0,6.89,1.35,6.89,3.51,0,.57-.12,1.18-.41,1.88-1.96-1.02-4.24-1.79-6.44-1.79-3.34,0-4.89,1.51-4.89,3.55,0,1.71,1.26,2.73,5.1,4.32,3.55,1.47,7.66,3.22,7.66,7.91s-3.71,7.79-8.85,7.79c-2.73,0-5.18-.53-7.87-1.92Z"/>
        <path class="st4" d="M-3272.9-117.22h-8.15v-3.47h19.98v3.47h-8.15v23.04h-3.67v-23.04Z"/>
        <path class="st4" d="M-3255.78-120.69h17.12v3.47h-13.45v8.03h12.23v3.47h-12.23v8.07h13.45v3.47h-17.12v-26.5Z"/>
        <path class="st4" d="M-3229.68-120.69h3.26l7.99,19,7.91-19h3.26l4.08,26.5h-3.71l-2.85-19.65-7.01,16.96h-3.34l-7.09-16.96-2.85,19.65h-3.71l4.08-26.5Z"/>
        <path class="st4" d="M-3189.52-120.69h3.26l9.99,26.5h-3.95l-2.12-5.83h-11.21l-2.12,5.83h-3.83l9.99-26.5ZM-3183.61-103.48l-4.32-12.03-4.36,12.03h8.68Z"/>
        <path class="st4" d="M-3162.82-120.69h7.62c7.5,0,13.17,5.38,13.17,13.29,0,7.5-5.67,13.21-13.17,13.21h-7.62v-26.5ZM-3155.19-97.65c5.34,0,9.42-4.12,9.42-9.74,0-6.03-4.08-9.83-9.42-9.83h-3.95v19.57h3.95Z"/>
        <path class="st4" d="M-3136.72-120.69h17.12v3.47h-13.45v8.03h12.23v3.47h-12.23v8.07h13.45v3.47h-17.12v-26.5Z"/>
        <path class="st4" d="M-3104.92-120.69h3.67v26.5h-3.67v-26.5Z"/>
        <path class="st4" d="M-3094.73-120.69h2.85l14.27,19.73v-19.73h3.67v26.5h-2.85l-14.27-19.61v19.61h-3.67v-26.5Z"/>
        <path class="st4" d="M-3067.41-120.69h16.31v3.47h-12.64v8.85h11.42v3.47h-11.42v10.72h-3.67v-26.5Z"/>
        <path class="st4" d="M-3047.14-107.4c0-8.73,5.59-13.62,11.99-13.62s12.07,4.85,12.07,13.58-5.67,13.58-12.07,13.58-11.99-4.89-11.99-13.54ZM-3035.16-97.61c4.24,0,8.2-3.02,8.2-9.79s-3.83-9.87-8.24-9.87-8.07,3.02-8.07,9.83,3.87,9.83,8.11,9.83Z"/>
        <path class="st4" d="M-3017.79-120.69h9.54c5.26,0,8.77,3.83,8.77,8.28,0,4.89-3.38,8.19-8.73,8.36,1.39.98,2.65,2.24,4.16,3.87l5.42,5.99h-4.93l-8.77-9.87h-1.79v9.87h-3.67v-26.5ZM-3008.7-107.52c3.14,0,5.46-1.34,5.46-4.89,0-2.61-2.32-4.81-5.46-4.81h-5.42v9.7h5.42Z"/>
        <path class="st4" d="M-2990.75-120.69h3.26l7.99,19,7.91-19h3.26l4.08,26.5h-3.71l-2.85-19.65-7.01,16.96h-3.34l-7.09-16.96-2.85,19.65h-3.71l4.08-26.5Z"/>
        <path class="st4" d="M-2950.59-120.69h3.26l9.99,26.5h-3.95l-2.12-5.83h-11.21l-2.12,5.83h-3.83l9.99-26.5ZM-2944.68-103.48l-4.32-12.03-4.36,12.03h8.68Z"/>
        <path class="st4" d="M-2926.46-86.2v-2.69c.73.37,1.59.49,2.49.49,1.96,0,2.69-.61,2.69-1.34,0-.65-.82-1.14-2.49-1.14-.49,0-.82.04-1.18.12l.49-3.26c-6.73-1.06-10.64-6.69-10.64-13.41,0-7.71,5.1-13.58,12.88-13.58,4.04,0,6.85,1.26,6.85,3.55,0,.53-.16,1.1-.65,1.92-1.71-1.22-3.79-1.88-6.12-1.88-6.03,0-9.21,4.48-9.21,9.99s3.18,9.99,9.74,9.99c2.36,0,4.53-.57,6.28-1.59v3.59c-1.39.82-3.75,1.51-6.4,1.59l-.16.94c2.2.29,3.75,1.55,3.75,3.42,0,2-1.71,3.87-5.34,3.87-.77,0-1.92-.08-2.98-.57Z"/>
        <path class="st4" d="M-2901.54-120.69h3.26l9.99,26.5h-3.95l-2.12-5.83h-11.21l-2.12,5.83h-3.83l9.99-26.5ZM-2902.44-127.5c1.1,0,1.83.24,2.69.61.77.33,1.26.49,1.88.49.82,0,1.3-.45,1.3-1.63h2.94c0,2.98-1.3,4.81-3.79,4.81-1.06,0-1.83-.29-2.57-.57-.61-.24-1.26-.49-2-.49-.94,0-1.26.45-1.26,1.35h-3.06c0-3.02,1.67-4.57,3.87-4.57ZM-2895.63-103.48l-4.32-12.03-4.36,12.03h8.68Z"/>
        <path class="st4" d="M-2886.05-107.4c0-8.73,5.59-13.62,11.99-13.62s12.07,4.85,12.07,13.58-5.67,13.58-12.07,13.58-11.99-4.89-11.99-13.54ZM-2874.06-97.61c4.24,0,8.19-3.02,8.19-9.79s-3.83-9.87-8.24-9.87-8.07,3.02-8.07,9.83,3.87,9.83,8.11,9.83Z"/>
        <path class="st4" d="M-2857.67-97.98h3.59c0,3.02-1.63,7.09-3.71,9.5l-2.53-1.51c1.75-2.61,2.65-5.75,2.65-7.99Z"/>
        <path class="st4" d="M-2839-120.69h2.85l14.27,19.73v-19.73h3.67v26.5h-2.85l-14.27-19.61v19.61h-3.67v-26.5Z"/>
        <path class="st4" d="M-2811.68-120.69h17.12v3.47h-13.45v8.03h12.23v3.47h-12.23v8.07h13.45v3.47h-17.12v-26.5Z"/>
        <path class="st4" d="M-2790.07-107.4c0-7.42,4.81-13.62,13.33-13.62,4.89,0,7.46,1.47,7.46,3.59,0,.53-.16,1.1-.53,1.83-2.08-1.3-4.61-1.83-6.93-1.83-6.44,0-9.58,4.77-9.58,9.91,0,5.91,3.95,10.07,9.87,10.07,1.59,0,2.85-.08,4.32-.53v-6.65h-4.93v-3.47h8.6v12.07c-2.89,1.59-5.46,2.16-8.73,2.16-7.26,0-12.88-5.42-12.88-13.54Z"/>
        <path class="st4" d="M-2763.57-107.4c0-8.73,5.59-13.62,11.99-13.62s12.07,4.85,12.07,13.58-5.67,13.58-12.07,13.58-11.99-4.89-11.99-13.54ZM-2751.58-97.61c4.24,0,8.19-3.02,8.19-9.79s-3.83-9.87-8.24-9.87-8.07,3.02-8.07,9.83,3.87,9.83,8.11,9.83ZM-2749.99-128.44h4.61l-4.77,5.3h-3.47l3.63-5.3Z"/>
        <path class="st4" d="M-2735.44-107.44c0-7.71,5.1-13.58,12.88-13.58,4.04,0,6.85,1.26,6.85,3.55,0,.53-.16,1.1-.65,1.92-1.71-1.22-3.79-1.88-6.12-1.88-6.03,0-9.21,4.48-9.21,9.99s3.18,9.99,9.75,9.99c2.36,0,4.53-.57,6.28-1.59v3.59c-1.47.86-3.95,1.59-6.77,1.59-8.15,0-13.01-6.11-13.01-13.58Z"/>
        <path class="st4" d="M-2709.83-120.69h3.67v26.5h-3.67v-26.5Z"/>
        <path class="st4" d="M-2700.86-107.4c0-8.73,5.59-13.62,11.99-13.62s12.07,4.85,12.07,13.58-5.67,13.58-12.07,13.58-11.99-4.89-11.99-13.54ZM-2688.87-97.61c4.24,0,8.2-3.02,8.2-9.79s-3.83-9.87-8.24-9.87-8.07,3.02-8.07,9.83,3.87,9.83,8.11,9.83Z"/>
        <path class="st4" d="M-2672.73-95.78v-3.83c2.49,1.47,5.14,2.16,7.99,2.16s5.06-1.55,5.06-4-2.57-3.51-5.38-4.65c-3.47-1.43-7.38-3.14-7.38-7.71,0-3.71,2.81-7.22,8.52-7.22,4.48,0,6.89,1.35,6.89,3.51,0,.57-.12,1.18-.41,1.88-1.96-1.02-4.24-1.79-6.44-1.79-3.34,0-4.89,1.51-4.89,3.55,0,1.71,1.26,2.73,5.1,4.32,3.55,1.47,7.67,3.22,7.67,7.91s-3.71,7.79-8.85,7.79c-2.73,0-5.18-.53-7.87-1.92Z"/>
        <path class="st4" d="M-2641.74-120.69h17.12v3.47h-13.45v8.03h12.23v3.47h-12.23v8.07h13.45v3.47h-17.12v-26.5Z"/>
        <path class="st4" d="M-2611.16-107.4c0-7.42,4.81-13.62,13.33-13.62,4.89,0,7.46,1.47,7.46,3.59,0,.53-.16,1.1-.53,1.83-2.08-1.3-4.61-1.83-6.93-1.83-6.44,0-9.58,4.77-9.58,9.91,0,5.91,3.95,10.07,9.87,10.07,1.59,0,2.85-.08,4.32-.53v-6.65h-4.93v-3.47h8.6v12.07c-2.89,1.59-5.46,2.16-8.73,2.16-7.26,0-12.88-5.42-12.88-13.54Z"/>
        <path class="st4" d="M-2583.44-120.69h17.12v3.47h-13.45v8.03h12.23v3.47h-12.23v8.07h13.45v3.47h-17.12v-26.5Z"/>
        <path class="st4" d="M-2561.42-95.78v-3.83c2.49,1.47,5.14,2.16,7.99,2.16s5.06-1.55,5.06-4-2.57-3.51-5.38-4.65c-3.47-1.43-7.38-3.14-7.38-7.71,0-3.71,2.81-7.22,8.52-7.22,4.48,0,6.89,1.35,6.89,3.51,0,.57-.12,1.18-.41,1.88-1.96-1.02-4.24-1.79-6.44-1.79-3.34,0-4.89,1.51-4.89,3.55,0,1.71,1.26,2.73,5.1,4.32,3.55,1.47,7.67,3.22,7.67,7.91s-3.71,7.79-8.85,7.79c-2.73,0-5.18-.53-7.87-1.92Z"/>
        <path class="st4" d="M-2533.61-117.22h-8.15v-3.47h19.98v3.47h-8.15v23.04h-3.67v-23.04Z"/>
        <path class="st4" d="M-2512.37-120.69h3.26l9.99,26.5h-3.95l-2.12-5.83h-11.21l-2.12,5.83h-3.83l9.99-26.5ZM-2513.27-127.5c1.1,0,1.83.24,2.69.61.78.33,1.26.49,1.88.49.82,0,1.3-.45,1.3-1.63h2.94c0,2.98-1.3,4.81-3.79,4.81-1.06,0-1.84-.29-2.57-.57-.61-.24-1.26-.49-2-.49-.94,0-1.26.45-1.26,1.35h-3.06c0-3.02,1.67-4.57,3.87-4.57ZM-2506.46-103.48l-4.32-12.03-4.36,12.03h8.68Z"/>
        <path class="st4" d="M-2496.87-107.4c0-8.73,5.59-13.62,11.99-13.62s12.07,4.85,12.07,13.58-5.67,13.58-12.07,13.58-11.99-4.89-11.99-13.54ZM-2484.89-97.61c4.24,0,8.19-3.02,8.19-9.79s-3.83-9.87-8.24-9.87-8.07,3.02-8.07,9.83,3.87,9.83,8.11,9.83Z"/>
      </g>
      <g>
        <g>
          <path class="st2" d="M-3107.84-230.28c0,32.76-23.1,65.52-74.34,65.52h-149.52v-50.82h149.52c17.64,0,17.64-7.14,17.64-10.92,0-14.28-47.88-36.12-67.2-45.36-48.72-23.94-99.96-47.04-99.96-92.82,0-32.76,23.1-65.52,74.34-65.52h136.5v50.82h-136.5c-17.64,0-17.64,7.14-17.64,10.92,0,14.28,47.88,35.7,67.62,45.36,48.72,23.52,99.54,46.62,99.54,92.82Z"/>
          <path class="st2" d="M-3084.75-164.76v-145.12c0-31.31,25.39-56.7,56.7-56.7h0v201.82h-56.7Z"/>
          <path class="st2" d="M-2998.23-324.36c0-61.32,53.76-110.88,120.12-110.88s120.54,49.56,120.54,110.88v159.6h-56.7v-159.6c0-33.18-25.2-60.06-63.84-60.06s-63.42,26.88-63.42,60.06v159.6h-56.7v-159.6Z"/>
          <path class="st2" d="M-2472.82-164.76h-145.32c-63,0-120.54-59.64-120.54-132.72s57.54-132.72,120.54-132.72h145.32v50.82h-145.32c-31.92,0-57.96,36.96-57.96,81.9s26.04,81.9,57.96,81.9h88.62v-88.4h56.7v139.22Z"/>
        </g>
        <path class="st4" d="M-3056.38-430.2c16.21,0,28.37,10.98,28.37,27.88s-12.16,28.16-28.37,28.16-28.37-11.54-28.37-28.16,12.16-27.88,28.37-27.88Z"/>
      </g>
    </g>
    <path class="st2" d="M-2998.23-430.2h16.28c22.31,0,40.42,18.11,40.42,40.42v191.44h-56.7v-231.87h0Z"/>
  </g>
  <g>
    <g>
      <path class="st0" d="M-3658.84,486.61"/>
      <path class="st0" d="M-3400.71,617.6"/>
      <path class="st0" d="M-3658.84,486.61"/>
      <path class="st0" d="M-3658.84,735.34c-.48,0-.95-.14-1.36-.4-.71-.46-1.14-1.25-1.14-2.1v-51.18c0-54.49,32.38-103.52,82.49-124.92l28.81-12.3-94.27-47.69c-3.77-1.91-6.05-5.72-5.95-9.94.1-4.22,2.56-7.92,6.42-9.64l122.32-54.61-122.97-64.8c-3.74-1.97-5.95-5.81-5.78-10.04.17-4.22,2.69-7.87,6.58-9.53l242-103.33c.77-.33,1.66-.25,2.36.21.7.46,1.12,1.25,1.12,2.09v47.71c0,53.53-31.58,102.21-80.46,124.03l-31.42,14.03,94.68,49.89c3.8,2,6.06,5.92,5.88,10.21-.18,4.3-2.74,8.01-6.69,9.7l-121.98,52.09,122.64,62.03c3.83,1.94,6.15,5.81,6.05,10.11-.1,4.3-2.6,8.05-6.52,9.81l-241.78,108.35c-.33.15-.68.22-1.02.22ZM-3544.22,547.39l-32.67,13.95c-48.27,20.61-79.46,67.84-79.46,120.32v47.32l238.26-106.77c2.18-.98,3.51-2.98,3.57-5.37.06-2.39-1.18-4.45-3.31-5.53l-126.39-63.93ZM-3515.9,425.53l-125.91,56.21c-2.11.94-3.4,2.88-3.46,5.2s1.14,4.31,3.21,5.36l98.02,49.58,125.85-53.74c2.2-.94,3.56-2.92,3.66-5.31s-1.11-4.47-3.22-5.59l-98.15-51.72ZM-3403.21,240.95l-238.52,101.85c-2.13.91-3.45,2.83-3.54,5.14-.09,2.31,1.07,4.33,3.12,5.41l126.45,66.63,35.01-15.63c47.08-21.02,77.5-67.91,77.5-119.47v-43.93Z"/>
      <path class="st0" d="M-3412.04,618.81h-.01c-1.38,0-2.49-1.12-2.49-2.5v-.03c0-.18-.12-3.37-3.28-4.96-4.7-2.38-227.45-115.13-227.45-115.13-1.83-.9-4.98-3.95-4.98-9.58v-137.66c0-1.35,1.07-2.45,2.41-2.5,1.36-.03,2.49.98,2.58,2.33,0,.1.31,3.1,3.09,4.56l226.75,119.48c.26.14,5.88,3.24,5.88,9.74v133.78c-.01,1.37-1.13,2.48-2.5,2.48ZM-3642.99,491.74s222.72,112.74,227.42,115.12c.36.18.71.38,1.03.58v-124.88c0-3.47-3.11-5.26-3.24-5.33l-226.71-119.46c-.26-.14-.51-.28-.75-.44v129.28c0,3.83,2.17,5.08,2.26,5.13ZM-3642.99,491.74h0,0Z"/>
    </g>
    <g>
      <g>
        <path class="st0" d="M-3331.7,637.17v-3.83c2.49,1.47,5.14,2.16,7.99,2.16s5.06-1.55,5.06-4-2.57-3.51-5.38-4.65c-3.47-1.43-7.38-3.14-7.38-7.71,0-3.71,2.81-7.22,8.52-7.22,4.48,0,6.89,1.35,6.89,3.51,0,.57-.12,1.18-.41,1.88-1.96-1.02-4.24-1.79-6.44-1.79-3.34,0-4.89,1.51-4.89,3.55,0,1.71,1.26,2.73,5.1,4.32,3.55,1.47,7.66,3.22,7.66,7.91s-3.71,7.79-8.85,7.79c-2.73,0-5.18-.53-7.87-1.92Z"/>
        <path class="st0" d="M-3309.68,612.26h3.67v26.5h-3.67v-26.5Z"/>
        <path class="st0" d="M-3300.71,637.17v-3.83c2.49,1.47,5.14,2.16,7.99,2.16s5.06-1.55,5.06-4-2.57-3.51-5.38-4.65c-3.47-1.43-7.38-3.14-7.38-7.71,0-3.71,2.81-7.22,8.52-7.22,4.48,0,6.89,1.35,6.89,3.51,0,.57-.12,1.18-.41,1.88-1.96-1.02-4.24-1.79-6.44-1.79-3.34,0-4.89,1.51-4.89,3.55,0,1.71,1.26,2.73,5.1,4.32,3.55,1.47,7.66,3.22,7.66,7.91s-3.71,7.79-8.85,7.79c-2.73,0-5.18-.53-7.87-1.92Z"/>
        <path class="st0" d="M-3272.9,615.72h-8.15v-3.47h19.98v3.47h-8.15v23.04h-3.67v-23.04Z"/>
        <path class="st0" d="M-3255.78,612.26h17.12v3.47h-13.45v8.03h12.23v3.47h-12.23v8.07h13.45v3.47h-17.12v-26.5Z"/>
        <path class="st0" d="M-3229.68,612.26h3.26l7.99,19,7.91-19h3.26l4.08,26.5h-3.71l-2.85-19.65-7.01,16.96h-3.34l-7.09-16.96-2.85,19.65h-3.71l4.08-26.5Z"/>
        <path class="st0" d="M-3189.52,612.26h3.26l9.99,26.5h-3.95l-2.12-5.83h-11.21l-2.12,5.83h-3.83l9.99-26.5ZM-3183.61,629.46l-4.32-12.03-4.36,12.03h8.68Z"/>
        <path class="st0" d="M-3162.82,612.26h7.62c7.5,0,13.17,5.38,13.17,13.29,0,7.5-5.67,13.21-13.17,13.21h-7.62v-26.5ZM-3155.19,635.29c5.34,0,9.42-4.12,9.42-9.74,0-6.03-4.08-9.83-9.42-9.83h-3.95v19.57h3.95Z"/>
        <path class="st0" d="M-3136.72,612.26h17.12v3.47h-13.45v8.03h12.23v3.47h-12.23v8.07h13.45v3.47h-17.12v-26.5Z"/>
        <path class="st0" d="M-3104.92,612.26h3.67v26.5h-3.67v-26.5Z"/>
        <path class="st0" d="M-3094.73,612.26h2.85l14.27,19.73v-19.73h3.67v26.5h-2.85l-14.27-19.61v19.61h-3.67v-26.5Z"/>
        <path class="st0" d="M-3067.41,612.26h16.31v3.47h-12.64v8.85h11.42v3.47h-11.42v10.72h-3.67v-26.5Z"/>
        <path class="st0" d="M-3047.14,625.55c0-8.73,5.59-13.62,11.99-13.62s12.07,4.85,12.07,13.58-5.67,13.58-12.07,13.58-11.99-4.89-11.99-13.54ZM-3035.16,635.33c4.24,0,8.2-3.02,8.2-9.79s-3.83-9.87-8.24-9.87-8.07,3.02-8.07,9.83,3.87,9.83,8.11,9.83Z"/>
        <path class="st0" d="M-3017.79,612.26h9.54c5.26,0,8.77,3.83,8.77,8.28,0,4.89-3.38,8.19-8.73,8.36,1.39.98,2.65,2.24,4.16,3.87l5.42,5.99h-4.93l-8.77-9.87h-1.79v9.87h-3.67v-26.5ZM-3008.7,625.42c3.14,0,5.46-1.34,5.46-4.89,0-2.61-2.32-4.81-5.46-4.81h-5.42v9.7h5.42Z"/>
        <path class="st0" d="M-2990.75,612.26h3.26l7.99,19,7.91-19h3.26l4.08,26.5h-3.71l-2.85-19.65-7.01,16.96h-3.34l-7.09-16.96-2.85,19.65h-3.71l4.08-26.5Z"/>
        <path class="st0" d="M-2950.59,612.26h3.26l9.99,26.5h-3.95l-2.12-5.83h-11.21l-2.12,5.83h-3.83l9.99-26.5ZM-2944.68,629.46l-4.32-12.03-4.36,12.03h8.68Z"/>
        <path class="st0" d="M-2926.46,646.75v-2.69c.73.37,1.59.49,2.49.49,1.96,0,2.69-.61,2.69-1.34,0-.65-.82-1.14-2.49-1.14-.49,0-.82.04-1.18.12l.49-3.26c-6.73-1.06-10.64-6.69-10.64-13.41,0-7.71,5.1-13.58,12.88-13.58,4.04,0,6.85,1.26,6.85,3.55,0,.53-.16,1.1-.65,1.92-1.71-1.22-3.79-1.88-6.12-1.88-6.03,0-9.21,4.48-9.21,9.99s3.18,9.99,9.74,9.99c2.36,0,4.53-.57,6.28-1.59v3.59c-1.39.82-3.75,1.51-6.4,1.59l-.16.94c2.2.29,3.75,1.55,3.75,3.42,0,2-1.71,3.87-5.34,3.87-.77,0-1.92-.08-2.98-.57Z"/>
        <path class="st0" d="M-2901.54,612.26h3.26l9.99,26.5h-3.95l-2.12-5.83h-11.21l-2.12,5.83h-3.83l9.99-26.5ZM-2902.44,605.45c1.1,0,1.83.24,2.69.61.77.33,1.26.49,1.88.49.82,0,1.3-.45,1.3-1.63h2.94c0,2.98-1.3,4.81-3.79,4.81-1.06,0-1.83-.29-2.57-.57-.61-.24-1.26-.49-2-.49-.94,0-1.26.45-1.26,1.35h-3.06c0-3.02,1.67-4.57,3.87-4.57ZM-2895.63,629.46l-4.32-12.03-4.36,12.03h8.68Z"/>
        <path class="st0" d="M-2886.05,625.55c0-8.73,5.59-13.62,11.99-13.62s12.07,4.85,12.07,13.58-5.67,13.58-12.07,13.58-11.99-4.89-11.99-13.54ZM-2874.06,635.33c4.24,0,8.19-3.02,8.19-9.79s-3.83-9.87-8.24-9.87-8.07,3.02-8.07,9.83,3.87,9.83,8.11,9.83Z"/>
        <path class="st0" d="M-2857.67,634.96h3.59c0,3.02-1.63,7.09-3.71,9.5l-2.53-1.51c1.75-2.61,2.65-5.75,2.65-7.99Z"/>
        <path class="st0" d="M-2839,612.26h2.85l14.27,19.73v-19.73h3.67v26.5h-2.85l-14.27-19.61v19.61h-3.67v-26.5Z"/>
        <path class="st0" d="M-2811.68,612.26h17.12v3.47h-13.45v8.03h12.23v3.47h-12.23v8.07h13.45v3.47h-17.12v-26.5Z"/>
        <path class="st0" d="M-2790.07,625.55c0-7.42,4.81-13.62,13.33-13.62,4.89,0,7.46,1.47,7.46,3.59,0,.53-.16,1.1-.53,1.83-2.08-1.3-4.61-1.83-6.93-1.83-6.44,0-9.58,4.77-9.58,9.91,0,5.91,3.95,10.07,9.87,10.07,1.59,0,2.85-.08,4.32-.53v-6.65h-4.93v-3.47h8.6v12.07c-2.89,1.59-5.46,2.16-8.73,2.16-7.26,0-12.88-5.42-12.88-13.54Z"/>
        <path class="st0" d="M-2763.57,625.55c0-8.73,5.59-13.62,11.99-13.62s12.07,4.85,12.07,13.58-5.67,13.58-12.07,13.58-11.99-4.89-11.99-13.54ZM-2751.58,635.33c4.24,0,8.19-3.02,8.19-9.79s-3.83-9.87-8.24-9.87-8.07,3.02-8.07,9.83,3.87,9.83,8.11,9.83ZM-2749.99,604.51h4.61l-4.77,5.3h-3.47l3.63-5.3Z"/>
        <path class="st0" d="M-2735.44,625.51c0-7.71,5.1-13.58,12.88-13.58,4.04,0,6.85,1.26,6.85,3.55,0,.53-.16,1.1-.65,1.92-1.71-1.22-3.79-1.88-6.12-1.88-6.03,0-9.21,4.48-9.21,9.99s3.18,9.99,9.75,9.99c2.36,0,4.53-.57,6.28-1.59v3.59c-1.47.86-3.95,1.59-6.77,1.59-8.15,0-13.01-6.11-13.01-13.58Z"/>
        <path class="st0" d="M-2709.83,612.26h3.67v26.5h-3.67v-26.5Z"/>
        <path class="st0" d="M-2700.86,625.55c0-8.73,5.59-13.62,11.99-13.62s12.07,4.85,12.07,13.58-5.67,13.58-12.07,13.58-11.99-4.89-11.99-13.54ZM-2688.87,635.33c4.24,0,8.2-3.02,8.2-9.79s-3.83-9.87-8.24-9.87-8.07,3.02-8.07,9.83,3.87,9.83,8.11,9.83Z"/>
        <path class="st0" d="M-2672.73,637.17v-3.83c2.49,1.47,5.14,2.16,7.99,2.16s5.06-1.55,5.06-4-2.57-3.51-5.38-4.65c-3.47-1.43-7.38-3.14-7.38-7.71,0-3.71,2.81-7.22,8.52-7.22,4.48,0,6.89,1.35,6.89,3.51,0,.57-.12,1.18-.41,1.88-1.96-1.02-4.24-1.79-6.44-1.79-3.34,0-4.89,1.51-4.89,3.55,0,1.71,1.26,2.73,5.1,4.32,3.55,1.47,7.67,3.22,7.67,7.91s-3.71,7.79-8.85,7.79c-2.73,0-5.18-.53-7.87-1.92Z"/>
        <path class="st0" d="M-2641.74,612.26h17.12v3.47h-13.45v8.03h12.23v3.47h-12.23v8.07h13.45v3.47h-17.12v-26.5Z"/>
        <path class="st0" d="M-2611.16,625.55c0-7.42,4.81-13.62,13.33-13.62,4.89,0,7.46,1.47,7.46,3.59,0,.53-.16,1.1-.53,1.83-2.08-1.3-4.61-1.83-6.93-1.83-6.44,0-9.58,4.77-9.58,9.91,0,5.91,3.95,10.07,9.87,10.07,1.59,0,2.85-.08,4.32-.53v-6.65h-4.93v-3.47h8.6v12.07c-2.89,1.59-5.46,2.16-8.73,2.16-7.26,0-12.88-5.42-12.88-13.54Z"/>
        <path class="st0" d="M-2583.44,612.26h17.12v3.47h-13.45v8.03h12.23v3.47h-12.23v8.07h13.45v3.47h-17.12v-26.5Z"/>
        <path class="st0" d="M-2561.42,637.17v-3.83c2.49,1.47,5.14,2.16,7.99,2.16s5.06-1.55,5.06-4-2.57-3.51-5.38-4.65c-3.47-1.43-7.38-3.14-7.38-7.71,0-3.71,2.81-7.22,8.52-7.22,4.48,0,6.89,1.35,6.89,3.51,0,.57-.12,1.18-.41,1.88-1.96-1.02-4.24-1.79-6.44-1.79-3.34,0-4.89,1.51-4.89,3.55,0,1.71,1.26,2.73,5.1,4.32,3.55,1.47,7.67,3.22,7.67,7.91s-3.71,7.79-8.85,7.79c-2.73,0-5.18-.53-7.87-1.92Z"/>
        <path class="st0" d="M-2533.61,615.72h-8.15v-3.47h19.98v3.47h-8.15v23.04h-3.67v-23.04Z"/>
        <path class="st0" d="M-2512.37,612.26h3.26l9.99,26.5h-3.95l-2.12-5.83h-11.21l-2.12,5.83h-3.83l9.99-26.5ZM-2513.27,605.45c1.1,0,1.83.24,2.69.61.78.33,1.26.49,1.88.49.82,0,1.3-.45,1.3-1.63h2.94c0,2.98-1.3,4.81-3.79,4.81-1.06,0-1.84-.29-2.57-.57-.61-.24-1.26-.49-2-.49-.94,0-1.26.45-1.26,1.35h-3.06c0-3.02,1.67-4.57,3.87-4.57ZM-2506.46,629.46l-4.32-12.03-4.36,12.03h8.68Z"/>
        <path class="st0" d="M-2496.87,625.55c0-8.73,5.59-13.62,11.99-13.62s12.07,4.85,12.07,13.58-5.67,13.58-12.07,13.58-11.99-4.89-11.99-13.54ZM-2484.89,635.33c4.24,0,8.19-3.02,8.19-9.79s-3.83-9.87-8.24-9.87-8.07,3.02-8.07,9.83,3.87,9.83,8.11,9.83Z"/>
      </g>
      <g>
        <g>
          <path class="st0" d="M-3107.84,502.67c0,32.76-23.1,65.52-74.34,65.52h-149.52v-50.82h149.52c17.64,0,17.64-7.14,17.64-10.92,0-14.28-47.88-36.12-67.2-45.36-48.72-23.94-99.96-47.04-99.96-92.82,0-32.76,23.1-65.52,74.34-65.52h136.5v50.82h-136.5c-17.64,0-17.64,7.14-17.64,10.92,0,14.28,47.88,35.7,67.62,45.36,48.72,23.52,99.54,46.62,99.54,92.82Z"/>
          <path class="st0" d="M-3084.75,568.19v-145.12c0-31.31,25.39-56.7,56.7-56.7h0v201.82h-56.7Z"/>
          <path class="st0" d="M-2998.23,408.59c0-61.32,53.76-110.88,120.12-110.88s120.54,49.56,120.54,110.88v159.6h-56.7v-159.6c0-33.18-25.2-60.06-63.84-60.06s-63.42,26.88-63.42,60.06v159.6h-56.7v-159.6Z"/>
          <path class="st0" d="M-2472.82,568.19h-145.32c-63,0-120.54-59.64-120.54-132.72s57.54-132.72,120.54-132.72h145.32v50.82h-145.32c-31.92,0-57.96,36.96-57.96,81.9s26.04,81.9,57.96,81.9h88.62v-88.4h56.7v139.22Z"/>
        </g>
        <path class="st0" d="M-3056.38,302.75c16.21,0,28.37,10.98,28.37,27.88s-12.16,28.16-28.37,28.16-28.37-11.54-28.37-28.16,12.16-27.88,28.37-27.88Z"/>
      </g>
    </g>
    <path class="st0" d="M-2998.23,302.75h16.28c22.31,0,40.42,18.11,40.42,40.42v191.44h-56.7v-231.87h0Z"/>
  </g>
  <g>
    <g>
      <path class="st7" d="M-3658.84,1240.17"/>
      <path class="st7" d="M-3400.71,1371.16"/>
      <path class="st7" d="M-3658.84,1240.17"/>
      <path class="st7" d="M-3658.84,1488.9c-.48,0-.95-.14-1.36-.4-.71-.46-1.14-1.25-1.14-2.1v-51.18c0-54.49,32.38-103.52,82.49-124.92l28.81-12.3-94.27-47.69c-3.77-1.91-6.05-5.72-5.95-9.94.1-4.22,2.56-7.92,6.42-9.64l122.32-54.61-122.97-64.8c-3.74-1.97-5.95-5.81-5.78-10.04.17-4.22,2.69-7.87,6.58-9.53l242-103.33c.77-.33,1.66-.25,2.36.21.7.46,1.12,1.25,1.12,2.09v47.71c0,53.53-31.58,102.21-80.46,124.03l-31.42,14.03,94.68,49.89c3.8,2,6.06,5.92,5.88,10.21-.18,4.3-2.74,8.01-6.69,9.7l-121.98,52.09,122.64,62.03c3.83,1.94,6.15,5.81,6.05,10.11-.1,4.3-2.6,8.05-6.52,9.81l-241.78,108.35c-.33.15-.68.22-1.02.22ZM-3544.22,1300.95l-32.67,13.95c-48.27,20.61-79.46,67.84-79.46,120.32v47.32l238.26-106.77c2.18-.98,3.51-2.98,3.57-5.37.06-2.39-1.18-4.45-3.31-5.53l-126.39-63.93ZM-3515.9,1179.09l-125.91,56.21c-2.11.94-3.4,2.88-3.46,5.2s1.14,4.31,3.21,5.36l98.02,49.58,125.85-53.74c2.2-.94,3.56-2.92,3.66-5.31s-1.11-4.47-3.22-5.59l-98.15-51.72ZM-3403.21,994.51l-238.52,101.85c-2.13.91-3.45,2.83-3.54,5.14-.09,2.31,1.07,4.33,3.12,5.41l126.45,66.63,35.01-15.63c47.08-21.02,77.5-67.91,77.5-119.47v-43.93Z"/>
      <path class="st7" d="M-3412.04,1372.37h-.01c-1.38,0-2.49-1.12-2.49-2.5v-.03c0-.18-.12-3.37-3.28-4.96-4.7-2.38-227.45-115.13-227.45-115.13-1.83-.9-4.98-3.95-4.98-9.58v-137.66c0-1.35,1.07-2.45,2.41-2.5,1.36-.03,2.49.98,2.58,2.33,0,.1.31,3.1,3.09,4.56l226.75,119.48c.26.14,5.88,3.24,5.88,9.74v133.78c-.01,1.37-1.13,2.48-2.5,2.48ZM-3642.99,1245.3s222.72,112.74,227.42,115.12c.36.18.71.38,1.03.58v-124.88c0-3.47-3.11-5.26-3.24-5.33l-226.71-119.46c-.26-.14-.51-.28-.75-.44v129.28c0,3.83,2.17,5.08,2.26,5.13ZM-3642.99,1245.3h0,0Z"/>
    </g>
    <g>
      <g>
        <path class="st7" d="M-3331.7,1390.73v-3.83c2.49,1.47,5.14,2.16,7.99,2.16s5.06-1.55,5.06-4-2.57-3.51-5.38-4.65c-3.47-1.43-7.38-3.14-7.38-7.71,0-3.71,2.81-7.22,8.52-7.22,4.48,0,6.89,1.35,6.89,3.51,0,.57-.12,1.18-.41,1.88-1.96-1.02-4.24-1.79-6.44-1.79-3.34,0-4.89,1.51-4.89,3.55,0,1.71,1.26,2.73,5.1,4.32,3.55,1.47,7.66,3.22,7.66,7.91s-3.71,7.79-8.85,7.79c-2.73,0-5.18-.53-7.87-1.92Z"/>
        <path class="st7" d="M-3309.68,1365.82h3.67v26.5h-3.67v-26.5Z"/>
        <path class="st7" d="M-3300.71,1390.73v-3.83c2.49,1.47,5.14,2.16,7.99,2.16s5.06-1.55,5.06-4-2.57-3.51-5.38-4.65c-3.47-1.43-7.38-3.14-7.38-7.71,0-3.71,2.81-7.22,8.52-7.22,4.48,0,6.89,1.35,6.89,3.51,0,.57-.12,1.18-.41,1.88-1.96-1.02-4.24-1.79-6.44-1.79-3.34,0-4.89,1.51-4.89,3.55,0,1.71,1.26,2.73,5.1,4.32,3.55,1.47,7.66,3.22,7.66,7.91s-3.71,7.79-8.85,7.79c-2.73,0-5.18-.53-7.87-1.92Z"/>
        <path class="st7" d="M-3272.9,1369.28h-8.15v-3.47h19.98v3.47h-8.15v23.04h-3.67v-23.04Z"/>
        <path class="st7" d="M-3255.78,1365.82h17.12v3.47h-13.45v8.03h12.23v3.47h-12.23v8.07h13.45v3.47h-17.12v-26.5Z"/>
        <path class="st7" d="M-3229.68,1365.82h3.26l7.99,19,7.91-19h3.26l4.08,26.5h-3.71l-2.85-19.65-7.01,16.96h-3.34l-7.09-16.96-2.85,19.65h-3.71l4.08-26.5Z"/>
        <path class="st7" d="M-3189.52,1365.82h3.26l9.99,26.5h-3.95l-2.12-5.83h-11.21l-2.12,5.83h-3.83l9.99-26.5ZM-3183.61,1383.02l-4.32-12.03-4.36,12.03h8.68Z"/>
        <path class="st7" d="M-3162.82,1365.82h7.62c7.5,0,13.17,5.38,13.17,13.29,0,7.5-5.67,13.21-13.17,13.21h-7.62v-26.5ZM-3155.19,1388.85c5.34,0,9.42-4.12,9.42-9.74,0-6.03-4.08-9.83-9.42-9.83h-3.95v19.57h3.95Z"/>
        <path class="st7" d="M-3136.72,1365.82h17.12v3.47h-13.45v8.03h12.23v3.47h-12.23v8.07h13.45v3.47h-17.12v-26.5Z"/>
        <path class="st7" d="M-3104.92,1365.82h3.67v26.5h-3.67v-26.5Z"/>
        <path class="st7" d="M-3094.73,1365.82h2.85l14.27,19.73v-19.73h3.67v26.5h-2.85l-14.27-19.61v19.61h-3.67v-26.5Z"/>
        <path class="st7" d="M-3067.41,1365.82h16.31v3.47h-12.64v8.85h11.42v3.47h-11.42v10.72h-3.67v-26.5Z"/>
        <path class="st7" d="M-3047.14,1379.11c0-8.73,5.59-13.62,11.99-13.62s12.07,4.85,12.07,13.58-5.67,13.58-12.07,13.58-11.99-4.89-11.99-13.54ZM-3035.16,1388.89c4.24,0,8.2-3.02,8.2-9.79s-3.83-9.87-8.24-9.87-8.07,3.02-8.07,9.83,3.87,9.83,8.11,9.83Z"/>
        <path class="st7" d="M-3017.79,1365.82h9.54c5.26,0,8.77,3.83,8.77,8.28,0,4.89-3.38,8.19-8.73,8.36,1.39.98,2.65,2.24,4.16,3.87l5.42,5.99h-4.93l-8.77-9.87h-1.79v9.87h-3.67v-26.5ZM-3008.7,1378.98c3.14,0,5.46-1.34,5.46-4.89,0-2.61-2.32-4.81-5.46-4.81h-5.42v9.7h5.42Z"/>
        <path class="st7" d="M-2990.75,1365.82h3.26l7.99,19,7.91-19h3.26l4.08,26.5h-3.71l-2.85-19.65-7.01,16.96h-3.34l-7.09-16.96-2.85,19.65h-3.71l4.08-26.5Z"/>
        <path class="st7" d="M-2950.59,1365.82h3.26l9.99,26.5h-3.95l-2.12-5.83h-11.21l-2.12,5.83h-3.83l9.99-26.5ZM-2944.68,1383.02l-4.32-12.03-4.36,12.03h8.68Z"/>
        <path class="st7" d="M-2926.46,1400.31v-2.69c.73.37,1.59.49,2.49.49,1.96,0,2.69-.61,2.69-1.34,0-.65-.82-1.14-2.49-1.14-.49,0-.82.04-1.18.12l.49-3.26c-6.73-1.06-10.64-6.69-10.64-13.41,0-7.71,5.1-13.58,12.88-13.58,4.04,0,6.85,1.26,6.85,3.55,0,.53-.16,1.1-.65,1.92-1.71-1.22-3.79-1.88-6.12-1.88-6.03,0-9.21,4.48-9.21,9.99s3.18,9.99,9.74,9.99c2.36,0,4.53-.57,6.28-1.59v3.59c-1.39.82-3.75,1.51-6.4,1.59l-.16.94c2.2.29,3.75,1.55,3.75,3.42,0,2-1.71,3.87-5.34,3.87-.77,0-1.92-.08-2.98-.57Z"/>
        <path class="st7" d="M-2901.54,1365.82h3.26l9.99,26.5h-3.95l-2.12-5.83h-11.21l-2.12,5.83h-3.83l9.99-26.5ZM-2902.44,1359.01c1.1,0,1.83.24,2.69.61.77.33,1.26.49,1.88.49.82,0,1.3-.45,1.3-1.63h2.94c0,2.98-1.3,4.81-3.79,4.81-1.06,0-1.83-.29-2.57-.57-.61-.24-1.26-.49-2-.49-.94,0-1.26.45-1.26,1.35h-3.06c0-3.02,1.67-4.57,3.87-4.57ZM-2895.63,1383.02l-4.32-12.03-4.36,12.03h8.68Z"/>
        <path class="st7" d="M-2886.05,1379.11c0-8.73,5.59-13.62,11.99-13.62s12.07,4.85,12.07,13.58-5.67,13.58-12.07,13.58-11.99-4.89-11.99-13.54ZM-2874.06,1388.89c4.24,0,8.19-3.02,8.19-9.79s-3.83-9.87-8.24-9.87-8.07,3.02-8.07,9.83,3.87,9.83,8.11,9.83Z"/>
        <path class="st7" d="M-2857.67,1388.52h3.59c0,3.02-1.63,7.09-3.71,9.5l-2.53-1.51c1.75-2.61,2.65-5.75,2.65-7.99Z"/>
        <path class="st7" d="M-2839,1365.82h2.85l14.27,19.73v-19.73h3.67v26.5h-2.85l-14.27-19.61v19.61h-3.67v-26.5Z"/>
        <path class="st7" d="M-2811.68,1365.82h17.12v3.47h-13.45v8.03h12.23v3.47h-12.23v8.07h13.45v3.47h-17.12v-26.5Z"/>
        <path class="st7" d="M-2790.07,1379.11c0-7.42,4.81-13.62,13.33-13.62,4.89,0,7.46,1.47,7.46,3.59,0,.53-.16,1.1-.53,1.83-2.08-1.3-4.61-1.83-6.93-1.83-6.44,0-9.58,4.77-9.58,9.91,0,5.91,3.95,10.07,9.87,10.07,1.59,0,2.85-.08,4.32-.53v-6.65h-4.93v-3.47h8.6v12.07c-2.89,1.59-5.46,2.16-8.73,2.16-7.26,0-12.88-5.42-12.88-13.54Z"/>
        <path class="st7" d="M-2763.57,1379.11c0-8.73,5.59-13.62,11.99-13.62s12.07,4.85,12.07,13.58-5.67,13.58-12.07,13.58-11.99-4.89-11.99-13.54ZM-2751.58,1388.89c4.24,0,8.19-3.02,8.19-9.79s-3.83-9.87-8.24-9.87-8.07,3.02-8.07,9.83,3.87,9.83,8.11,9.83ZM-2749.99,1358.07h4.61l-4.77,5.3h-3.47l3.63-5.3Z"/>
        <path class="st7" d="M-2735.44,1379.07c0-7.71,5.1-13.58,12.88-13.58,4.04,0,6.85,1.26,6.85,3.55,0,.53-.16,1.1-.65,1.92-1.71-1.22-3.79-1.88-6.12-1.88-6.03,0-9.21,4.48-9.21,9.99s3.18,9.99,9.75,9.99c2.36,0,4.53-.57,6.28-1.59v3.59c-1.47.86-3.95,1.59-6.77,1.59-8.15,0-13.01-6.11-13.01-13.58Z"/>
        <path class="st7" d="M-2709.83,1365.82h3.67v26.5h-3.67v-26.5Z"/>
        <path class="st7" d="M-2700.86,1379.11c0-8.73,5.59-13.62,11.99-13.62s12.07,4.85,12.07,13.58-5.67,13.58-12.07,13.58-11.99-4.89-11.99-13.54ZM-2688.87,1388.89c4.24,0,8.2-3.02,8.2-9.79s-3.83-9.87-8.24-9.87-8.07,3.02-8.07,9.83,3.87,9.83,8.11,9.83Z"/>
        <path class="st7" d="M-2672.73,1390.73v-3.83c2.49,1.47,5.14,2.16,7.99,2.16s5.06-1.55,5.06-4-2.57-3.51-5.38-4.65c-3.47-1.43-7.38-3.14-7.38-7.71,0-3.71,2.81-7.22,8.52-7.22,4.48,0,6.89,1.35,6.89,3.51,0,.57-.12,1.18-.41,1.88-1.96-1.02-4.24-1.79-6.44-1.79-3.34,0-4.89,1.51-4.89,3.55,0,1.71,1.26,2.73,5.1,4.32,3.55,1.47,7.67,3.22,7.67,7.91s-3.71,7.79-8.85,7.79c-2.73,0-5.18-.53-7.87-1.92Z"/>
        <path class="st7" d="M-2641.74,1365.82h17.12v3.47h-13.45v8.03h12.23v3.47h-12.23v8.07h13.45v3.47h-17.12v-26.5Z"/>
        <path class="st7" d="M-2611.16,1379.11c0-7.42,4.81-13.62,13.33-13.62,4.89,0,7.46,1.47,7.46,3.59,0,.53-.16,1.1-.53,1.83-2.08-1.3-4.61-1.83-6.93-1.83-6.44,0-9.58,4.77-9.58,9.91,0,5.91,3.95,10.07,9.87,10.07,1.59,0,2.85-.08,4.32-.53v-6.65h-4.93v-3.47h8.6v12.07c-2.89,1.59-5.46,2.16-8.73,2.16-7.26,0-12.88-5.42-12.88-13.54Z"/>
        <path class="st7" d="M-2583.44,1365.82h17.12v3.47h-13.45v8.03h12.23v3.47h-12.23v8.07h13.45v3.47h-17.12v-26.5Z"/>
        <path class="st7" d="M-2561.42,1390.73v-3.83c2.49,1.47,5.14,2.16,7.99,2.16s5.06-1.55,5.06-4-2.57-3.51-5.38-4.65c-3.47-1.43-7.38-3.14-7.38-7.71,0-3.71,2.81-7.22,8.52-7.22,4.48,0,6.89,1.35,6.89,3.51,0,.57-.12,1.18-.41,1.88-1.96-1.02-4.24-1.79-6.44-1.79-3.34,0-4.89,1.51-4.89,3.55,0,1.71,1.26,2.73,5.1,4.32,3.55,1.47,7.67,3.22,7.67,7.91s-3.71,7.79-8.85,7.79c-2.73,0-5.18-.53-7.87-1.92Z"/>
        <path class="st7" d="M-2533.61,1369.28h-8.15v-3.47h19.98v3.47h-8.15v23.04h-3.67v-23.04Z"/>
        <path class="st7" d="M-2512.37,1365.82h3.26l9.99,26.5h-3.95l-2.12-5.83h-11.21l-2.12,5.83h-3.83l9.99-26.5ZM-2513.27,1359.01c1.1,0,1.83.24,2.69.61.78.33,1.26.49,1.88.49.82,0,1.3-.45,1.3-1.63h2.94c0,2.98-1.3,4.81-3.79,4.81-1.06,0-1.84-.29-2.57-.57-.61-.24-1.26-.49-2-.49-.94,0-1.26.45-1.26,1.35h-3.06c0-3.02,1.67-4.57,3.87-4.57ZM-2506.46,1383.02l-4.32-12.03-4.36,12.03h8.68Z"/>
        <path class="st7" d="M-2496.87,1379.11c0-8.73,5.59-13.62,11.99-13.62s12.07,4.85,12.07,13.58-5.67,13.58-12.07,13.58-11.99-4.89-11.99-13.54ZM-2484.89,1388.89c4.24,0,8.19-3.02,8.19-9.79s-3.83-9.87-8.24-9.87-8.07,3.02-8.07,9.83,3.87,9.83,8.11,9.83Z"/>
      </g>
      <g>
        <g>
          <path class="st7" d="M-3107.84,1256.23c0,32.76-23.1,65.52-74.34,65.52h-149.52v-50.82h149.52c17.64,0,17.64-7.14,17.64-10.92,0-14.28-47.88-36.12-67.2-45.36-48.72-23.94-99.96-47.04-99.96-92.82,0-32.76,23.1-65.52,74.34-65.52h136.5v50.82h-136.5c-17.64,0-17.64,7.14-17.64,10.92,0,14.28,47.88,35.7,67.62,45.36,48.72,23.52,99.54,46.62,99.54,92.82Z"/>
          <path class="st7" d="M-3084.75,1321.75v-145.12c0-31.31,25.39-56.7,56.7-56.7h0v201.82h-56.7Z"/>
          <path class="st7" d="M-2998.23,1162.15c0-61.32,53.76-110.88,120.12-110.88s120.54,49.56,120.54,110.88v159.6h-56.7v-159.6c0-33.18-25.2-60.06-63.84-60.06s-63.42,26.88-63.42,60.06v159.6h-56.7v-159.6Z"/>
          <path class="st7" d="M-2472.82,1321.75h-145.32c-63,0-120.54-59.64-120.54-132.72s57.54-132.72,120.54-132.72h145.32v50.82h-145.32c-31.92,0-57.96,36.96-57.96,81.9s26.04,81.9,57.96,81.9h88.62v-88.4h56.7v139.22Z"/>
        </g>
        <path class="st7" d="M-3056.38,1056.31c16.21,0,28.37,10.98,28.37,27.88s-12.16,28.16-28.37,28.16-28.37-11.54-28.37-28.16,12.16-27.88,28.37-27.88Z"/>
      </g>
    </g>
    <path class="st7" d="M-2998.23,1056.31h16.28c22.31,0,40.42,18.11,40.42,40.42v191.44h-56.7v-231.87h0Z"/>
  </g>
</svg>